<?xml version="1.0" encoding="utf-8"?>
<!-- Generator: Adobe Illustrator 16.0.0, SVG Export Plug-In . SVG Version: 6.00 Build 0)  -->
<!DOCTYPE svg PUBLIC "-//W3C//DTD SVG 1.1//EN" "http://www.w3.org/Graphics/SVG/1.1/DTD/svg11.dtd">
<svg version="1.1" id="Ebene_1" xmlns="http://www.w3.org/2000/svg" xmlns:xlink="http://www.w3.org/1999/xlink" x="0px" y="0px"
	 width="32px" height="32px" viewBox="0 0 32 32" enable-background="new 0 0 32 32" xml:space="preserve">
<g>
	<path d="M16,0C7.178,0,0,7.178,0,16s7.178,16,16,16s16-7.178,16-16S24.822,0,16,0z M16,30C8.28,30,2,23.72,2,16S8.28,2,16,2
		s14,6.28,14,14S23.72,30,16,30z"/>
	<path d="M16,4C9.383,4,4,9.383,4,16c0,0.553,0.447,1,1,1s1-0.447,1-1c0-5.514,4.486-10,10-10s10,4.486,10,10c0,0.553,0.447,1,1,1
		s1-0.447,1-1C28,9.383,22.617,4,16,4z"/>
	<path d="M19.641,9.227c-0.535-0.123-1.074,0.211-1.199,0.75l-2.783,12.058C14.167,22.207,13,23.463,13,25c0,1.654,1.346,3,3,3
		s3-1.346,3-3c0-1.062-0.557-1.99-1.391-2.523l2.781-12.05C20.515,9.888,20.179,9.351,19.641,9.227z M16,26c-0.552,0-1-0.449-1-1
		s0.448-1,1-1s1,0.449,1,1S16.552,26,16,26z"/>
</g>
</svg>
