<?xml version="1.0" encoding="utf-8"?>
<!-- Generator: Adobe Illustrator 16.0.0, SVG Export Plug-In . SVG Version: 6.00 Build 0)  -->
<!DOCTYPE svg PUBLIC "-//W3C//DTD SVG 1.1//EN" "http://www.w3.org/Graphics/SVG/1.1/DTD/svg11.dtd">
<svg version="1.1" id="Ebene_1" xmlns="http://www.w3.org/2000/svg" xmlns:xlink="http://www.w3.org/1999/xlink" x="0px" y="0px"
	 width="32px" height="32px" viewBox="0 0 32 32" enable-background="new 0 0 32 32" xml:space="preserve">
<g>
	<path d="M23.625,17.969C28.296,17.646,32,13.752,32,9c0-0.823-0.118-1.655-0.351-2.472c-0.098-0.341-0.367-0.605-0.711-0.694
		c-0.341-0.089-0.708,0.01-0.958,0.261l-1.728,1.728c-1.088,1.09-2.985,1.09-4.075,0c-1.123-1.124-1.123-2.952,0-4.077l1.727-1.727
		c0.251-0.25,0.35-0.615,0.261-0.958c-0.089-0.343-0.353-0.614-0.693-0.711C24.654,0.118,23.823,0,23,0c-4.963,0-9,4.038-9,9
		c0,0.469,0.054,0.949,0.133,1.432l-1.194,1.093L7.217,5.803c0.529-1.114,0.344-2.484-0.577-3.405L4.535,0.293
		c-0.391-0.391-1.023-0.391-1.414,0L0.293,3.121c-0.391,0.391-0.391,1.023,0,1.414l2.105,2.105C2.965,7.208,3.719,7.52,4.52,7.52
		c0.454,0,0.888-0.11,1.286-0.3l5.657,5.657l-9.704,8.881C0.624,22.891,0,24.398,0,26c0,1.604,0.624,3.109,1.758,4.242
		C2.892,31.376,4.398,32,6,32c1.603,0,3.109-0.625,4.272-1.789l6.824-7.458l8.075,8.075C25.928,31.584,26.932,32,28,32
		c1.069,0,2.073-0.416,2.827-1.172C31.584,30.074,32,29.07,32,28.001s-0.416-2.073-1.172-2.829L23.625,17.969z M3.812,5.227
		L2.414,3.828l1.414-1.414l1.398,1.398c0.39,0.39,0.39,1.024,0,1.414C4.848,5.604,4.191,5.604,3.812,5.227z M8.828,28.828
		c-1.511,1.511-4.144,1.512-5.656,0C2.416,28.072,2,27.068,2,26s0.416-2.072,1.14-2.798l12.746-11.663
		c0.033-0.03,0.047-0.069,0.075-0.103c0.045-0.053,0.088-0.105,0.122-0.167c0.031-0.057,0.049-0.115,0.068-0.176
		c0.02-0.061,0.038-0.12,0.044-0.185c0.008-0.069,0.001-0.135-0.005-0.205c-0.004-0.043,0.006-0.084-0.003-0.128
		C16.062,10.042,16,9.511,16,9c0-3.891,3.212-7.019,7.095-7l-0.332,0.332c-1.901,1.904-1.901,5.001,0,6.904
		c0.923,0.923,2.148,1.432,3.453,1.432s2.53-0.508,3.452-1.431l0.331-0.331C30,8.937,30,8.969,30,9c0,3.86-3.141,7-7,7
		c-0.517,0-1.046-0.062-1.574-0.185c-0.043-0.01-0.085,0-0.128-0.003c-0.07-0.007-0.137-0.013-0.207-0.005
		c-0.062,0.007-0.118,0.024-0.178,0.042c-0.063,0.019-0.124,0.038-0.183,0.07c-0.06,0.032-0.109,0.074-0.161,0.117
		c-0.034,0.029-0.076,0.044-0.107,0.078L8.828,28.828z M29.414,29.414c-0.756,0.756-2.072,0.756-2.828,0l-7.768-7.768l2.828-2.828
		l7.768,7.768C29.792,26.964,30,27.467,30,28.001S29.792,29.037,29.414,29.414z"/>
	<circle cx="6" cy="26" r="2"/>
</g>
</svg>
