<?xml version="1.0" encoding="utf-8"?>
<!-- Generator: Adobe Illustrator 16.0.0, SVG Export Plug-In . SVG Version: 6.00 Build 0)  -->
<!DOCTYPE svg PUBLIC "-//W3C//DTD SVG 1.1//EN" "http://www.w3.org/Graphics/SVG/1.1/DTD/svg11.dtd">
<svg version="1.1" id="Ebene_1" xmlns="http://www.w3.org/2000/svg" xmlns:xlink="http://www.w3.org/1999/xlink" x="0px" y="0px"
	 width="32px" height="32px" viewBox="0 0 32 32" enable-background="new 0 0 32 32" xml:space="preserve">
<g>
	<path d="M27,2H5C2.243,2,0,4.243,0,7v18c0,2.757,2.243,5,5,5h22c2.757,0,5-2.243,5-5V7C32,4.243,29.757,2,27,2z M5,4h22
		c1.654,0,3,1.346,3,3v12.974l-8.145-7.72c-0.389-0.371-1.004-0.365-1.388,0.012l-8.016,7.869l-2.313-1.92
		c-0.387-0.321-0.954-0.307-1.322,0.039L2,24.633V7C2,5.346,3.346,4,5,4z M2.601,26.782c0.026-0.02,0.058-0.027,0.083-0.051
		l6.856-6.415L18.797,28H5C4.016,28,3.148,27.518,2.601,26.782z M27,28h-5.082c-0.009-0.008-0.013-0.019-0.021-0.026L14,21.419
		l7.181-7.05L30,22.729V25C30,26.654,28.654,28,27,28z"/>
	<path d="M11,16.001c2.757,0,5-2.244,5-5.001s-2.243-5-5-5s-5,2.243-5,5S8.243,16.001,11,16.001z M11,8c1.654,0,3,1.346,3,3
		s-1.346,3.001-3,3.001S8,12.654,8,11S9.346,8,11,8z"/>
</g>
</svg>
