<?xml version="1.0" encoding="utf-8"?>
<!-- Generator: Adobe Illustrator 16.0.0, SVG Export Plug-In . SVG Version: 6.00 Build 0)  -->
<!DOCTYPE svg PUBLIC "-//W3C//DTD SVG 1.1//EN" "http://www.w3.org/Graphics/SVG/1.1/DTD/svg11.dtd">
<svg version="1.1" id="Ebene_1" xmlns="http://www.w3.org/2000/svg" xmlns:xlink="http://www.w3.org/1999/xlink" x="0px" y="0px"
	 width="32px" height="32px" viewBox="0 0 32 32" enable-background="new 0 0 32 32" xml:space="preserve">
<g>
	<path d="M29,14h-4V9c0-4.962-4.037-9-9-9c-4.962,0-9,4.038-9,9v5H3c-0.552,0-1,0.448-1,1v12c0,2.757,2.243,5,5,5h18
		c2.757,0,5-2.243,5-5V15C30,14.448,29.553,14,29,14z M9,9c0-3.86,3.14-7,7-7c3.859,0,7,3.14,7,7v5H9V9z M28,27c0,1.654-1.346,3-3,3
		H7c-1.654,0-3-1.346-3-3V16h24V27z"/>
	<path d="M16,19c-2.206,0-4,1.795-4,4s1.794,4,4,4c2.205,0,4-1.795,4-4S18.205,19,16,19z M16,25c-1.103,0-2-0.896-2-2s0.897-2,2-2
		c1.104,0,2,0.896,2,2S17.104,25,16,25z"/>
</g>
</svg>
