<?xml version="1.0" encoding="utf-8"?>
<!-- Generator: Adobe Illustrator 16.0.0, SVG Export Plug-In . SVG Version: 6.00 Build 0)  -->
<!DOCTYPE svg PUBLIC "-//W3C//DTD SVG 1.1//EN" "http://www.w3.org/Graphics/SVG/1.1/DTD/svg11.dtd">
<svg version="1.1" id="Ebene_1" xmlns="http://www.w3.org/2000/svg" xmlns:xlink="http://www.w3.org/1999/xlink" x="0px" y="0px"
	 width="32px" height="32px" viewBox="0 0 32 32" enable-background="new 0 0 32 32" xml:space="preserve">
<g>
	<path d="M21,11H11c-0.553,0-1,0.448-1,1c0,0.553,0.447,1,1,1h10c0.553,0,1-0.447,1-1C22,11.448,21.553,11,21,11z"/>
	<path d="M21,15H11c-0.553,0-1,0.447-1,1s0.447,1,1,1h10c0.553,0,1-0.447,1-1S21.553,15,21,15z"/>
	<path d="M21,19H11c-0.553,0-1,0.447-1,1s0.447,1,1,1h10c0.553,0,1-0.447,1-1S21.553,19,21,19z"/>
</g>
<path d="M27,1H5C2.243,1,0,3.243,0,6v20c0,2.757,2.243,5,5,5h22c2.756,0,5-2.243,5-5V6C32,3.243,29.756,1,27,1z M30,26
	c0,1.654-1.346,3-3,3H5c-1.654,0-3-1.346-3-3V6c0-1.654,1.346-3,3-3h22c1.654,0,3,1.346,3,3V26z"/>
</svg>
