<?xml version="1.0" encoding="utf-8"?>
<!-- Generator: Adobe Illustrator 16.0.0, SVG Export Plug-In . SVG Version: 6.00 Build 0)  -->
<!DOCTYPE svg PUBLIC "-//W3C//DTD SVG 1.1//EN" "http://www.w3.org/Graphics/SVG/1.1/DTD/svg11.dtd">
<svg version="1.1" id="Ebene_1" xmlns="http://www.w3.org/2000/svg" xmlns:xlink="http://www.w3.org/1999/xlink" x="0px" y="0px"
	 width="32px" height="32px" viewBox="0 0 32 32" enable-background="new 0 0 32 32" xml:space="preserve">
<g>
	<path d="M27,1H5C2.243,1,0,3.243,0,6v20c0,2.757,2.243,5,5,5h22c2.756,0,5-2.243,5-5V6C32,3.243,29.756,1,27,1z M30,26
		c0,1.654-1.346,3-3,3H5c-1.654,0-3-1.346-3-3V6c0-1.654,1.346-3,3-3h22c1.654,0,3,1.346,3,3V26z"/>
	<path d="M25,15h-1V8c0-0.553-0.447-1-1-1s-1,0.447-1,1v7h-1c-0.553,0-1,0.447-1,1s0.447,1,1,1h1v7c0,0.553,0.447,1,1,1s1-0.447,1-1
		v-7h1c0.553,0,1-0.447,1-1S25.553,15,25,15z"/>
	<path d="M18,11h-1V8c0-0.553-0.447-1-1-1c-0.553,0-1,0.447-1,1v3h-1c-0.552,0-1,0.447-1,1s0.448,1,1,1h1v11c0,0.553,0.448,1,1,1
		c0.552,0,1-0.447,1-1V13h1c0.553,0,1-0.447,1-1S18.553,11,18,11z"/>
	<path d="M11,18h-1V8c0-0.553-0.448-1-1-1S8,7.447,8,8v10H7c-0.552,0-1,0.447-1,1s0.448,1,1,1h1v4c0,0.553,0.448,1,1,1s1-0.447,1-1
		v-4h1c0.552,0,1-0.447,1-1S11.552,18,11,18z"/>
</g>
</svg>
